<svg width="39" height="40" viewBox="0 0 39 40" fill="none" xmlns="http://www.w3.org/2000/svg">
<path d="M33.7545 17.1146L31.5315 10.444C31.209 9.47299 30.5887 8.62835 29.7588 8.03003C28.9289 7.43172 27.9315 7.11018 26.9084 7.11109H12.0916C11.0685 7.11018 10.0711 7.43172 9.24119 8.03003C8.41125 8.62835 7.79098 9.47299 7.4685 10.444L5.2455 17.1146C4.655 17.3624 4.1507 17.7788 3.79575 18.3118C3.4408 18.8448 3.25096 19.4707 3.25 20.1111V28.2361C3.25 29.4597 3.93738 30.5143 4.93837 31.0685C4.91725 31.1757 4.875 31.2732 4.875 31.3853V34.7361C4.875 35.1671 5.0462 35.5804 5.35095 35.8851C5.6557 36.1899 6.06902 36.3611 6.5 36.3611H8.125C8.55598 36.3611 8.9693 36.1899 9.27405 35.8851C9.57879 35.5804 9.75 35.1671 9.75 34.7361V31.4861H29.25V34.7361C29.25 35.1671 29.4212 35.5804 29.726 35.8851C30.0307 36.1899 30.444 36.3611 30.875 36.3611H32.5C32.931 36.3611 33.3443 36.1899 33.649 35.8851C33.9538 35.5804 34.125 35.1671 34.125 34.7361V31.3853C34.125 31.2732 34.0828 31.1741 34.0616 31.0685C34.5709 30.7908 34.9963 30.3815 35.2933 29.8832C35.5903 29.385 35.748 28.8161 35.75 28.2361V20.1111C35.75 18.764 34.9245 17.607 33.7545 17.1146ZM6.5 28.2361V20.1111H32.5L32.5033 28.2361H6.5ZM12.0916 10.3611H26.9068C27.6071 10.3611 28.2279 10.8063 28.4489 11.4726L30.2461 16.8611H8.75388L10.5495 11.4726C10.6573 11.1489 10.8643 10.8673 11.1411 10.6678C11.4179 10.4683 11.7504 10.361 12.0916 10.3611Z" fill="white"/>
<path d="M10.5625 26.6111C11.9087 26.6111 13 25.5198 13 24.1736C13 22.8274 11.9087 21.7361 10.5625 21.7361C9.21631 21.7361 8.125 22.8274 8.125 24.1736C8.125 25.5198 9.21631 26.6111 10.5625 26.6111Z" fill="white"/>
<path d="M28.4375 26.6111C29.7837 26.6111 30.875 25.5198 30.875 24.1736C30.875 22.8274 29.7837 21.7361 28.4375 21.7361C27.0913 21.7361 26 22.8274 26 24.1736C26 25.5198 27.0913 26.6111 28.4375 26.6111Z" fill="white"/>
</svg>
