<svg width="39" height="40" viewBox="0 0 39 40" fill="none" xmlns="http://www.w3.org/2000/svg">
<path d="M32.5 20.1111V17.3372C32.5 10.119 26.8466 4.0756 19.8981 3.86597C16.3166 3.7831 12.9902 5.06197 10.4471 7.53197C9.19334 8.73987 8.19721 10.1892 7.51883 11.7926C6.84044 13.396 6.49387 15.1201 6.5 16.8611V20.1111C4.70762 20.1111 3.25 21.5687 3.25 23.3611V29.8611C3.25 31.6535 4.70762 33.1111 6.5 33.1111H9.75V16.8611C9.74521 15.5554 10.0049 14.2622 10.5135 13.0597C11.0221 11.8571 11.769 10.7699 12.7091 9.86384C13.6453 8.95251 14.7558 8.23942 15.974 7.76727C17.1922 7.29511 18.4932 7.07359 19.799 7.11597C25.012 7.27197 29.25 11.8577 29.25 17.3372V33.1111H32.5C34.2924 33.1111 35.75 31.6535 35.75 29.8611V23.3611C35.75 21.5687 34.2924 20.1111 32.5 20.1111Z" fill="white"/>
<path d="M11.375 20.1111H14.625V33.1111H11.375V20.1111ZM24.375 20.1111H27.625V33.1111H24.375V20.1111Z" fill="white"/>
</svg>
