<svg width="39" height="40" viewBox="0 0 39 40" fill="none" xmlns="http://www.w3.org/2000/svg">
<path d="M19.5 8.07795C17.7294 6.44987 15.4119 5.54628 13.0065 5.5462C11.7334 5.54753 10.4731 5.80061 9.29818 6.29089C8.12324 6.78117 7.05686 7.49896 6.1604 8.40295C2.33678 12.2428 2.3384 18.2488 6.16365 22.0725L18.0782 33.9869C18.3544 34.4728 18.8874 34.7865 19.5 34.7865C19.7516 34.784 19.999 34.7226 20.2226 34.6072C20.4461 34.4918 20.6394 34.3255 20.787 34.1218L32.8364 22.0725C36.6617 18.2472 36.6617 12.2428 32.8332 8.39645C31.9371 7.49412 30.8716 6.77779 29.6978 6.28864C28.5241 5.79949 27.2652 5.54718 25.9935 5.5462C23.5882 5.5466 21.2708 6.45015 19.5 8.07795ZM30.5354 10.6942C33.0753 13.2471 33.0769 17.2348 30.5387 19.7747L19.5 30.8133L8.4614 19.7747C5.92315 17.2348 5.92478 13.2471 8.45815 10.7007C9.69315 9.4722 11.3084 8.7962 13.0065 8.7962C14.7047 8.7962 16.3134 9.4722 17.5387 10.6975L18.3512 11.51C18.5019 11.661 18.681 11.7808 18.8782 11.8626C19.0753 11.9443 19.2866 11.9864 19.5 11.9864C19.7134 11.9864 19.9248 11.9443 20.1219 11.8626C20.319 11.7808 20.4981 11.661 20.6489 11.51L21.4614 10.6975C23.9184 8.24533 28.0817 8.25183 30.5354 10.6942Z" fill="white"/>
</svg>
