<svg width="52" height="50" viewBox="0 0 52 50" fill="none" xmlns="http://www.w3.org/2000/svg">
<path d="M19.2678 0.833996C18.2156 1.11194 17.4116 1.57849 16.6174 2.37262C15.4659 3.51418 14.9398 4.83442 14.9498 6.54179C14.9597 8.4477 15.863 10.1253 17.4711 11.2172L18.166 11.6937L18.1362 12.1503L18.1064 12.597L13.5402 13.2621C7.3162 14.1555 7.08789 14.1952 6.45259 14.4831C6.14486 14.632 5.10257 15.2375 4.11984 15.8529C2.17422 17.0739 1.59848 17.6 1.33046 18.4041C1.07237 19.1883 1.15179 20.5184 1.48929 20.9453C1.53892 21.0148 1.48929 21.1339 1.34039 21.2729C1.21134 21.4019 0.983033 21.7692 0.834134 22.0968C0.585969 22.6427 0.566116 22.7817 0.605822 23.556C0.655455 24.5288 0.834134 24.9755 1.43966 25.5909C2.02533 26.1865 2.75989 26.4843 3.66321 26.4843C4.37793 26.4843 4.50697 26.4446 6.88936 25.4718C8.2493 24.9159 9.44049 24.4593 9.53976 24.4593C9.69858 24.4593 9.71844 24.5586 9.71844 25.3229C9.71844 26.3553 9.97653 27.6557 10.4133 28.8469C10.7508 29.77 13.8975 35.319 14.3641 35.8054C14.513 35.9543 14.91 36.2223 15.2575 36.3911C15.8034 36.6591 15.992 36.7087 16.6472 36.6988C17.1237 36.6988 17.5505 36.6293 17.7888 36.53L18.156 36.3712V38.2374V40.1036L18.9998 44.6698C19.784 48.9482 19.8535 49.2361 20.0917 49.4445C20.2307 49.5736 20.459 49.6729 20.5881 49.6729C20.7171 49.6729 20.9355 49.5736 21.0844 49.4445C21.3226 49.246 21.402 48.8887 22.226 44.7096C22.9506 41.0466 23.1193 40.0242 23.1193 39.2896V38.3863L23.6455 38.565C24.7076 38.9323 24.9458 38.8826 28.6584 37.483L32.0235 36.2025L33.8004 34.9319C35.3886 33.7903 36.1827 33.3337 37.5824 32.748C38.4659 32.3807 38.3269 31.2094 37.3938 31.2094C37.0761 31.2094 35.7758 31.7057 35.1305 32.073C34.8824 32.212 33.8798 32.8969 32.897 33.5918L31.1103 34.8425L28.0231 36.0039C26.3256 36.6392 24.7969 37.1653 24.6381 37.1653C23.6057 37.1653 22.7322 35.3587 23.3179 34.4157C23.566 33.9988 23.7249 33.9094 25.3528 33.2443C26.1172 32.9267 26.812 32.5991 26.9113 32.5098C27.0006 32.4204 27.8841 31.1895 28.8668 29.77C30.0382 28.0924 30.6636 27.0998 30.6636 26.9409C30.6636 26.6332 29.9985 25.4122 29.4327 24.6678C28.8768 23.9431 27.7848 22.9207 27.0602 22.4442C26.1966 21.8685 24.8962 21.2927 23.9532 21.0644L23.1193 20.8559V16.2798V11.7036L23.5958 11.4555C23.8539 11.3165 24.38 10.8896 24.7672 10.5124C26.544 8.76535 26.9907 6.11494 25.8789 3.83183C25.4322 2.90865 24.2113 1.68768 23.2782 1.24099C21.9976 0.625538 20.598 0.486565 19.2678 0.833996ZM21.68 2.37262C22.494 2.591 23.1392 2.96822 23.705 3.56381C25.3032 5.25133 25.2734 7.72305 23.6455 9.36094C22.9804 10.0161 22.2458 10.4032 21.3127 10.5621C19.6153 10.8599 17.7689 9.87712 16.9649 8.24916C15.4163 5.11236 18.3149 1.49908 21.68 2.37262ZM21.5311 26.1071V40.0043L21.0844 42.2279C20.8362 43.4489 20.6377 44.4713 20.6278 44.5011C20.6278 44.5309 20.4292 43.5283 20.191 42.2775L19.7542 39.9944L19.7443 26.0873V12.1801L20.6377 12.19L21.5311 12.1999V26.1071ZM15.6545 15.1978C15.3766 15.575 15.1384 15.8827 15.1284 15.9026C15.1086 15.9224 13.5898 16.2699 11.7335 16.6768C5.38051 18.0666 5.73787 17.9474 4.01064 19.2379C3.46468 19.6548 2.95843 19.9824 2.89887 19.9923C2.80953 19.9923 2.76982 19.8335 2.76982 19.5159C2.76982 18.9699 2.99813 18.5331 3.48454 18.1857C4.24888 17.6099 6.93899 16.0118 7.36583 15.8629C7.78275 15.7239 15.2376 14.5625 15.8928 14.5426C16.1608 14.5327 16.1608 14.5327 15.6545 15.1978ZM16.9649 24.2211C15.9325 25.2832 15.7737 25.4917 15.7737 25.7696C15.7737 25.9582 16.3097 27.7053 16.9748 29.6708C17.9774 32.6884 18.156 33.3138 18.1263 33.7109C18.0469 34.6341 17.1535 35.319 16.3097 35.0907C16.1012 35.0311 15.8034 34.8822 15.6545 34.7631C15.3567 34.5149 12.4185 29.5119 12.0413 28.6086C11.5549 27.4472 11.3663 26.5538 11.3563 25.4023C11.3563 24.4692 11.3861 24.2409 11.5846 23.8141C11.9122 23.0994 17.0939 15.9125 17.6399 15.4062L18.1064 14.9794L18.1362 18.9897L18.156 23.0001L16.9649 24.2211ZM13.3615 18.3743C12.6269 19.3967 10.4034 22.5038 10.3339 22.6229C10.2942 22.6924 9.9269 22.7916 9.50998 22.8512C8.94416 22.9405 8.13018 23.2185 6.29376 23.963C3.48454 25.1145 3.35549 25.1343 2.64077 24.4593C2.27349 24.1218 2.23378 24.0424 2.204 23.5063C2.17422 23.0497 2.204 22.8512 2.3529 22.6229C2.58122 22.2655 5.63861 19.9923 6.3831 19.635C6.79009 19.4265 13.0041 17.9474 13.57 17.9177C13.6494 17.9077 13.56 18.1063 13.3615 18.3743ZM24.9855 23.1291C25.3925 23.3078 25.9981 23.6552 26.3256 23.9034C27.5565 24.7769 28.9959 26.5439 28.8172 26.9509C28.7676 27.0501 28.0826 28.0627 27.2885 29.2141L25.8492 31.2888L24.6083 31.805C23.9234 32.0928 23.3079 32.341 23.2484 32.3708C23.1491 32.4105 23.1193 31.3881 23.1193 27.4571V22.4938L23.6951 22.6427C24.0028 22.7221 24.5885 22.9405 24.9855 23.1291ZM18.1461 26.7126L18.1362 28.0825L17.7888 27.0601L17.4413 26.0277L17.7689 25.6902C17.9476 25.5016 18.1064 25.3527 18.1263 25.3527C18.1461 25.3527 18.156 25.9681 18.1461 26.7126Z" fill="white"/>
<path d="M41.5034 11.8826C41.0269 12.0613 40.5207 12.508 40.2923 12.9447C40.1335 13.2524 40.0938 13.5304 40.0938 14.3344V15.3271H38.8033C38.0986 15.3271 37.2846 15.2775 36.9967 15.2179C36.55 15.1186 34.6838 14.6422 26.6036 12.5377C25.7995 12.3293 25.4719 12.369 25.2535 12.6767C24.9855 13.0638 25.1046 13.7389 25.4719 13.8778C25.7697 13.9969 35.8452 16.5977 36.5996 16.7665C37.0563 16.8558 37.8504 16.9154 38.714 16.9154H40.0938V25.353C40.0938 32.7483 40.1137 33.8402 40.2427 34.1678C40.4412 34.6343 40.739 34.9421 41.2354 35.2101C41.6225 35.4285 41.7218 35.4285 45.752 35.4285C49.7822 35.4285 49.8814 35.4285 50.2686 35.2101C50.7252 34.9718 51.023 34.6641 51.2513 34.2174C51.3903 33.9296 51.4101 32.8873 51.4101 23.6158C51.4101 13.58 51.4101 13.3219 51.2116 12.9546C50.9734 12.4782 50.4274 12.0116 49.9311 11.8627C49.7127 11.8032 48.8391 11.7535 47.8465 11.7535C46.1689 11.7535 46.1391 11.7535 45.9009 12.0017C45.742 12.1506 45.6527 12.3591 45.6527 12.5477C45.6527 12.7363 45.742 12.9447 45.9009 13.0936C46.1391 13.3418 46.1689 13.3418 47.7671 13.3418C49.2263 13.3418 49.4248 13.3616 49.6333 13.5304L49.8715 13.719V23.6158V33.5126L49.6333 33.7012C49.4149 33.8799 49.1965 33.8898 45.7619 33.8898C42.6251 33.8898 42.0891 33.87 41.9004 33.731L41.6821 33.5821V23.6158V13.6495L41.9004 13.5006C42.0394 13.4013 42.3372 13.3418 42.7045 13.3418C43.1909 13.3418 43.32 13.3021 43.5383 13.0837C43.7468 12.8752 43.7766 12.766 43.7269 12.4682C43.6475 11.9124 43.3795 11.7535 42.5358 11.7635C42.1486 11.7635 41.6821 11.823 41.5034 11.8826Z" fill="white"/>
<path d="M45.0273 27.2785C43.1909 27.9337 42.5953 30.1672 43.8758 31.5569C44.4516 32.1723 45.0273 32.4304 45.8512 32.4304C47.9259 32.4304 49.1667 30.2664 48.1343 28.4598C47.5189 27.3877 46.1689 26.8815 45.0273 27.2785ZM46.3575 28.8866C46.9432 29.1844 47.0821 30.058 46.6156 30.4947C46.0597 31.0208 45.345 30.9315 44.9578 30.2962C44.7196 29.8991 44.7097 29.7999 44.9181 29.3631C45.1961 28.7774 45.7817 28.5888 46.3575 28.8866Z" fill="white"/>
</svg>
