<svg width="39" height="40" viewBox="0 0 39 40" fill="none" xmlns="http://www.w3.org/2000/svg">
<path d="M19.5 13.6111V21.7361H27.625V18.4861H22.75V13.6111H19.5Z" fill="white"/>
<path d="M34.5995 14.4187C33.8665 12.6801 32.8024 11.1005 31.4665 9.76798C29.4443 7.74577 26.8738 6.36052 24.0728 5.78348C22.1286 5.38777 20.1247 5.38777 18.1805 5.78348C15.3768 6.35683 12.8041 7.74322 10.7835 9.7696C9.45082 11.1035 8.38716 12.6814 7.6505 14.4171C6.88855 16.2186 6.49727 18.1551 6.5 20.1111L6.50162 20.1517H3.25L8.125 26.6111L13 20.1517H9.75163L9.75 20.1111C9.74532 17.8448 10.4219 15.6295 11.6919 13.7525C12.5111 12.5413 13.554 11.4978 14.7648 10.678C15.9964 9.84826 17.3779 9.2665 18.8321 8.96523C21.7872 8.35764 24.8627 8.94838 27.3824 10.6076C29.9021 12.2668 31.6599 14.8586 32.2692 17.8134C32.5758 19.3277 32.5758 20.888 32.2692 22.4024C31.9719 23.8578 31.3899 25.2401 30.5565 26.4697C30.1503 27.0726 29.6839 27.6397 29.1688 28.1532C28.1306 29.19 26.9033 30.0181 25.5531 30.5924C24.8655 30.883 24.1508 31.1051 23.4195 31.2554C21.9057 31.5617 20.3459 31.5617 18.8321 31.2554C17.3782 30.9573 15.9973 30.3758 14.768 29.5442C14.1634 29.1357 13.5992 28.6705 13.0829 28.1549L10.7851 30.4526C12.1422 31.8115 13.754 32.8894 15.5283 33.6244C17.3026 34.3595 19.2045 34.7372 21.125 34.7361C23.08 34.7353 25.0151 34.3447 26.8174 33.5872C29.4298 32.482 31.6648 30.6415 33.2507 28.2897C34.883 25.8748 35.7536 23.0259 35.75 20.1111C35.7541 18.1555 35.3627 16.2193 34.5995 14.4187Z" fill="white"/>
</svg>
